<svg width="96" height="29" viewBox="0 0 96 29" fill="none" xmlns="http://www.w3.org/2000/svg">
    <path fill-rule="evenodd" clip-rule="evenodd" d="M26.3588 22.1143C28.9765 21.5141 30.929 19.1704 30.929 16.3706C30.929 13.1162 28.2908 10.478 25.0364 10.478C21.782 10.478 19.1438 13.1162 19.1438 16.3706C19.1438 19.1451 21.0613 21.4717 23.6433 22.0976C24.1723 19.7497 22.6055 17.6024 20.9116 17.837C20.9116 17.837 21.1067 16.6885 22.3893 16.3073C23.4952 15.9791 23.9704 16.5133 24.0806 16.6672C24.0951 16.69 24.1043 16.7034 24.1062 16.7062C24.1064 16.7066 24.1066 16.7068 24.1066 16.7068C24.1066 16.7068 24.0983 16.6919 24.0806 16.6672C23.951 16.4632 23.391 15.5001 23.6803 14.4848C24.0063 13.3409 25.0795 12.8423 25.0795 12.8423L25.067 12.8352C25.067 12.8352 26.1329 13.3492 26.4414 14.4977C26.7158 15.517 26.1434 16.4715 26.0103 16.6746C25.9921 16.6992 25.9835 16.7142 25.9835 16.7142C25.9835 16.7142 25.9933 16.7005 26.0103 16.6746C26.1233 16.5216 26.6067 15.9948 27.7057 16.3385C28.9824 16.7376 29.1613 17.8884 29.1613 17.8884C27.279 17.4622 25.7 19.7243 26.3588 22.1143ZM25.2843 22.2581L24.7322 22.2555C24.833 22.2606 24.9344 22.2632 25.0364 22.2632C25.1195 22.2632 25.2021 22.2615 25.2843 22.2581Z" fill="white"/>
    <path d="M15.7491 15.2992C14.1495 16.0712 12.3039 16.559 10.1302 16.559C8.40757 16.559 7.05395 16.0307 6.2751 15.0146C5.86489 14.4457 5.65979 13.5515 5.6189 12.983C13.6984 13.1862 18.6611 11.3575 18.6611 6.31796C18.6611 2.61968 15.7491 0.343994 11.6889 0.343994C4.4295 0.343994 0 6.64306 0 12.6984C0 17.8999 2.95289 21.1174 8.65356 21.1174C10.9094 21.1174 13.8214 20.711 16.1589 19.5258L15.7491 15.2992ZM13.1243 6.27711C13.1243 8.14634 10.8276 8.75603 6.19265 8.71551C6.60286 6.8868 8.20247 4.61111 10.9503 4.61111C12.3039 4.61111 13.1243 5.30182 13.1243 6.27711Z" fill="white"/>
    <path d="M75.0001 0.62743L82.3007 20.4996H88.5346L95.9991 0.62743H89.4371L86.8532 9.85237C86.4021 11.5592 86.0743 13.0628 85.7459 14.6887H85.6229C85.2948 13.1037 84.9664 11.5596 84.4744 9.85237L81.7675 0.62743H75.0004H75.0001ZM52.8195 6.56055C52.8195 3.59382 52.9012 1.92749 52.9833 0.62743H47.5699L47.3648 3.02532H47.2827C46.2575 1.35898 44.5349 0.180796 41.7871 0.180796C36.8244 0.180796 32.6818 4.24435 32.6818 10.6653C32.6818 16.355 36.2091 20.3372 41.1718 20.3372C43.4685 20.3372 45.3962 19.4028 46.5856 17.7769H46.6677V19.0368C46.6677 22.7418 44.4122 24.2859 41.459 24.2859C39.0802 24.2859 36.9068 23.5138 35.6353 22.7823L34.405 27.4964C36.2094 28.4717 38.9572 29 41.6232 29C44.5761 29 47.5702 28.4312 49.7439 26.5616C52.0406 24.5705 52.8201 21.4414 52.8201 17.6145V6.56088L52.8195 6.56055ZM46.5852 11.6402C46.5852 12.1686 46.5444 12.8188 46.3801 13.3062C45.9699 14.7285 44.6988 15.7852 43.0579 15.7852C40.4744 15.7852 38.9977 13.469 38.9977 10.5022C38.9977 6.88531 40.8021 4.85337 43.0988 4.85337C44.8214 4.85337 46.0108 5.95086 46.4619 7.57602C46.5434 7.94998 46.5846 8.33145 46.5849 8.71403V11.6399L46.5852 11.6402ZM65.5004 0.000334623C59.0202 0.000334623 54.7546 4.10474 54.7546 10.5662C54.7546 16.9871 59.2662 20.8136 65.1311 20.8136C70.504 20.8136 75.7127 17.4746 75.7127 10.2002C75.7127 4.18576 71.6113 0 65.5004 0V0.000334623ZM65.2953 4.42983C68.1252 4.42983 69.2737 7.43707 69.2737 10.363C69.2737 13.9795 67.7562 16.3774 65.2953 16.3774C62.6293 16.3774 61.1939 13.8172 61.1939 10.4035C61.1939 7.47759 62.3424 4.4295 65.2953 4.4295V4.42983Z" fill="white"/>
</svg>
